<svg width="21" height="20" viewBox="0 0 21 20" fill="none" xmlns="http://www.w3.org/2000/svg">
<g clip-path="url(#clip0_101_511)">
<path d="M3.33203 1.75C2.86328 1.91016 2.53125 2.20703 2.32422 2.64844L2.19922 2.91016V9.60938V16.3086L2.28516 16.582C2.52344 17.3281 3.14063 17.9531 3.89844 18.2148L4.15234 18.3008L9.40625 18.3203C12.2969 18.332 15.1523 18.332 15.7539 18.3203C16.7383 18.3008 16.8711 18.2891 17.1016 18.2109C17.8398 17.9648 18.457 17.3477 18.7148 16.6016L18.8008 16.3477L18.8125 11.8125L18.8203 7.28125L18.7305 7.10547C18.6797 7.01172 18.5625 6.87891 18.4727 6.81641L18.3047 6.69922L16.9063 6.6875L15.5039 6.67578L15.4922 4.8125C15.4805 3 15.4766 2.94531 15.3945 2.74219C15.2695 2.42969 15.0156 2.125 14.7461 1.94922C14.3008 1.66016 14.7109 1.67969 8.82422 1.67969C3.90234 1.68359 3.51172 1.6875 3.33203 1.75ZM8.67969 5.04688C8.90234 5.11328 9.14453 5.36719 9.20703 5.59766C9.3125 5.96875 9.15625 6.35938 8.82813 6.55078L8.64453 6.66016L7.29688 6.67188C5.69141 6.6875 5.61328 6.67969 5.34375 6.41016C4.92969 5.99609 5.02734 5.35938 5.54297 5.10156L5.75 5H7.13281C8.11719 5 8.56641 5.01562 8.67969 5.04688ZM12.1914 8.04688C12.2734 8.10156 12.3867 8.21484 12.4453 8.29688C12.5391 8.43359 12.5508 8.48828 12.5508 8.75C12.5508 9.01172 12.5391 9.06641 12.4453 9.20312C12.3867 9.28516 12.2734 9.39844 12.1914 9.45312L12.0469 9.55078L8.92188 9.5625C6.76953 9.57031 5.74609 9.5625 5.64844 9.53125C5.07422 9.36719 4.90234 8.55469 5.35156 8.13672C5.57813 7.92578 5.45703 7.92969 8.88281 7.94141L12.0469 7.94922L12.1914 8.04688ZM17.1719 12.0703C17.1797 14.793 17.1719 15.8594 17.1367 16.0117C17.1016 16.1797 17.0547 16.2578 16.9102 16.4062C16.6836 16.6328 16.5156 16.6797 15.9336 16.6797H15.5V12.5V8.32031L16.332 8.32812L17.1602 8.33984L17.1719 12.0703ZM12.1211 10.9258C12.418 11.082 12.5703 11.3359 12.5703 11.6602C12.5703 11.9922 12.3828 12.2852 12.082 12.4258C11.9336 12.4961 11.7617 12.5 8.83594 12.5H5.75L5.54297 12.3984C5.01953 12.1367 4.92578 11.4453 5.36719 11.0625C5.46094 10.9766 5.60547 10.8867 5.6875 10.8672C5.77734 10.8398 6.96094 10.8281 8.89844 10.832C11.957 10.8398 11.9648 10.8398 12.1211 10.9258ZM12.082 13.8242C12.6992 14.1055 12.7344 14.9766 12.1406 15.3125L11.9648 15.4102L8.95703 15.4219C6.76563 15.4297 5.89063 15.4219 5.73828 15.3906C5.44922 15.3281 5.17969 15.0664 5.11328 14.7812C5.01953 14.3984 5.19141 14.0273 5.54297 13.8516L5.75 13.75H8.83594C11.7383 13.75 11.9336 13.7578 12.082 13.8242Z" fill="black" fill-opacity="0.3"/>
</g>
<defs>
<clipPath id="clip0_101_511">
<rect width="20" height="20" fill="white" transform="translate(0.5)"/>
</clipPath>
</defs>
</svg>
